<svg width="70" height="71" viewBox="0 0 70 71" fill="none" xmlns="http://www.w3.org/2000/svg">
<path d="M38.7571 1.675C38.6586 3.53984 38.1993 5.34453 37.4391 6.85937C36.6188 8.5 35.6618 9.73594 33.4743 11.9727C26.7039 18.9016 22.4547 25.3984 21.6016 30.1234C21.268 31.95 21.3774 34.7391 21.875 37.1234C22.9086 42.0781 25.6704 46.1633 30.4172 49.7398C31.2704 50.3797 32.8782 51.4844 32.9602 51.4844C32.9875 51.4844 33.0914 51.2328 33.1954 50.9211C33.4141 50.2703 34.0813 48.8977 34.5352 48.1484C36.0664 45.6328 37.7563 43.6805 41.0704 40.6125C44.2914 37.632 44.9969 36.9156 46.0086 35.5977C47.9063 33.1312 48.6555 31.25 49.0219 28.0727C49.4157 24.6875 49.1094 21.6742 47.9883 17.868C46.4133 12.5359 43.2414 6.28515 40.1735 2.48437C39.736 1.94297 38.8883 1.00781 38.8336 1.00781C38.8118 1.00781 38.7735 1.30859 38.7571 1.675Z" fill="white"/>
<path d="M52.0294 18.6555C52.0787 18.8359 52.3302 20.3289 52.4396 21.1328C52.6638 22.768 52.7404 23.8781 52.7404 25.7812C52.7458 29.5 52.4505 30.9328 51.2419 33.0328C49.6232 35.8438 46.3802 39.6281 43.1154 42.5266C41.3982 44.0523 39.6591 46.218 38.9263 47.7492C38.6912 48.2359 38.6529 48.3781 38.5818 48.925C38.538 49.2641 38.4779 49.6742 38.4451 49.8383C38.3302 50.4508 38.4013 51.3203 38.5763 51.3203C38.6091 51.3203 38.8333 51.2437 39.074 51.1508C40.3701 50.6531 42.0818 50.2594 45.3357 49.707C48.5513 49.1602 49.5466 48.9414 50.7224 48.5312C53.5443 47.5359 56.8419 44.9055 58.1544 42.5977C58.4279 42.1273 58.9255 40.6781 59.1716 39.6719C59.7732 37.1891 59.8005 34.3234 59.2482 31.4141C58.4115 26.9625 56.2568 22.5984 53.5388 19.8695C53.0029 19.3281 52.1169 18.5625 52.0294 18.5625C52.013 18.5625 52.013 18.6063 52.0294 18.6555Z" fill="white"/>
<path d="M18.3474 26.5261C17.2044 27.3081 16.3677 28.0027 15.3888 28.9761C13.9615 30.4035 13.0701 31.623 12.2771 33.2472C10.631 36.605 10.5872 39.5417 12.1349 42.7081C13.5568 45.6066 16.0724 47.898 19.3974 49.3199C21.7326 50.3206 24.2591 50.8621 27.5294 51.0699C28.049 51.1027 28.0544 51.1081 27.1521 50.5558C22.1755 47.5042 19.4302 44.5292 18.3638 41.0402C18.1943 40.4933 17.899 38.5027 17.7458 36.9003C17.4451 33.7667 18.0138 29.0855 19.0255 26.4222C19.113 26.1925 19.1677 26.0011 19.1458 26.0011C19.1294 26.0066 18.7685 26.2417 18.3474 26.5261Z" fill="white"/>
<path d="M52.8552 52.7211C50.963 53.0328 48.5841 53.3992 47.5779 53.5359C43.8755 54.0391 41.9177 54.4273 39.7029 55.0891C38.6529 55.4062 37.3951 55.8711 37.4443 55.9203C37.5044 55.975 39.1068 56.4562 40.3372 56.7898C43.1099 57.5336 47.4193 58.4031 49.2732 58.6L49.8474 58.6602L54.4958 57.643C57.0552 57.0852 59.1826 56.6039 59.2263 56.5766C59.3466 56.5109 59.549 55.9039 59.5872 55.4883C59.631 55.0563 59.5216 54.5695 59.2919 54.143C59.0841 53.7492 58.4497 53.1477 57.9302 52.8414C57.5255 52.6008 56.4591 52.1359 56.3497 52.1469C56.3224 52.1523 54.7529 52.4094 52.8552 52.7211Z" fill="white"/>
<path d="M13.3652 53.7755C11.9816 54.9513 11.4183 56.1052 11.5058 57.5544C11.5496 58.2271 11.7027 58.9818 11.8121 59.0365C11.8558 59.0583 12.5941 59.1404 13.4472 59.2224C17.3957 59.5888 21.1801 60.1411 23.3293 60.6716C24.5598 60.9724 25.4566 61.2732 27.9066 62.181C31.2316 63.4169 32.6098 63.7943 34.9996 64.1115C35.6777 64.2044 36.8098 64.3521 37.5152 64.445C38.2207 64.538 40.2277 64.8224 41.9723 65.074C43.7168 65.3255 45.5871 65.5825 46.1285 65.6482C47.359 65.7904 47.6762 65.8669 49.3605 66.4138C50.8262 66.895 52.1879 67.2615 52.7293 67.3216C53.0629 67.3599 53.0629 67.3599 53.0246 67.2286C52.4832 65.3036 52.4832 64.3575 53.0301 63.2419C53.1777 62.9357 53.3418 62.7224 53.6699 62.3943C54.1457 61.924 54.5723 61.645 55.2558 61.3661C55.5676 61.2404 55.6988 61.1583 55.7371 61.0599C55.7644 60.9888 55.7644 60.9122 55.7426 60.8904C55.7207 60.8685 55.2941 60.8247 54.7965 60.7865C51.9144 60.5841 47.0035 59.7091 40.7691 58.2927C38.8277 57.8497 38.2973 57.7075 35.798 56.9529C33.709 56.324 32.8613 56.0943 31.8168 55.8865C30.7394 55.6622 27.8082 55.2521 19.4683 54.1365C16.8652 53.7919 14.6066 53.4802 14.4426 53.4529C13.8902 53.3544 13.8465 53.3654 13.3652 53.7755Z" fill="white"/>
<path d="M16.2039 61.785C15.05 62.1186 14.1094 62.4084 14.1094 62.4248C14.1148 62.4412 14.3445 62.5834 14.6234 62.7475C15.9086 63.4858 16.7508 64.5139 16.9859 65.6514C17.1555 66.4444 17.0406 67.7678 16.7125 68.8506C16.6688 68.9983 16.6414 69.1295 16.6523 69.1404C16.6633 69.1569 19.4688 68.0467 22.8867 66.6795L29.0992 64.1912L26.8953 63.3709C23.0016 61.9162 21.5906 61.5006 19.6711 61.249C18.5391 61.1014 18.5336 61.1014 16.2039 61.785Z" fill="white"/>
<path d="M57.5311 61.6913C56.2241 61.9429 55.0593 62.9601 54.6272 64.2288C54.4796 64.6718 54.4304 65.4811 54.5233 66.0171C54.6108 66.553 54.8843 67.0944 55.2014 67.3897C55.6991 67.8491 56.3225 68.0296 57.203 67.9858C58.4444 67.9257 59.5491 67.2366 60.0741 66.1866C60.3257 65.678 60.3968 65.3007 60.3585 64.6116C60.2874 63.3046 59.7569 62.2819 58.9257 61.8718C58.6358 61.7296 58.4991 61.6968 58.1218 61.6858C57.8702 61.6749 57.6077 61.6804 57.5311 61.6913Z" fill="white"/>
<path d="M11.8396 63.4679C11.3475 63.5116 10.817 63.6757 10.4506 63.8889C9.83262 64.2499 9.32949 64.9936 9.15996 65.7975C9.05605 66.2843 9.05605 67.2741 9.15996 67.7225C9.35137 68.521 9.8709 69.1882 10.5709 69.5272C11.0576 69.7679 11.4787 69.8608 12.1951 69.8991C13.9998 69.9866 15.1209 69.2702 15.5146 67.7827C15.6404 67.296 15.6459 66.0819 15.5146 65.6116C15.3232 64.8843 14.9186 64.2991 14.3771 63.9491C14.0326 63.7304 13.4037 63.528 12.9225 63.4897C12.7201 63.4733 12.4904 63.4514 12.4139 63.4405C12.3373 63.435 12.0803 63.446 11.8396 63.4679Z" fill="white"/>
</svg>
