<svg width="80" height="81" viewBox="0 0 80 81" fill="none" xmlns="http://www.w3.org/2000/svg">
<g clip-path="url(#clip0_495_19824)">
<path d="M37.6024 0.575752C31.1671 1.182 25.6529 4.4195 22.0945 9.682C20.1071 12.6195 18.8705 16.282 18.6623 19.8883L18.6434 20.1695L18.0125 20.2133C14.5235 20.4695 10.8579 21.832 7.99356 23.932C2.79482 27.7508 -0.170478 33.757 0.0187963 40.107C0.0755786 41.8945 0.296399 43.3383 0.769585 44.9758C2.59293 51.282 7.6087 56.332 13.9431 58.2195C15.35 58.6383 16.6876 58.8883 18.1955 59.0133C19.35 59.1008 62.656 59.1008 63.7664 59.007C67.2238 58.7195 70.4541 57.4695 73.2428 55.3445C73.5393 55.1133 74.2522 54.4633 74.8327 53.8945C76.3784 52.357 77.2428 51.157 78.2081 49.232C79.0156 47.607 79.5519 45.8945 79.8548 43.9508C79.9936 43.0445 80.0125 40.3008 79.8863 39.3883C79.1923 34.5383 76.7507 30.3945 72.9021 27.5445C70.5361 25.7883 67.8548 24.7008 64.7317 24.2195C63.8737 24.0883 61.0156 24.0695 60.2838 24.1883C60.044 24.2258 59.8358 24.2445 59.8232 24.232C59.8106 24.2195 59.8485 23.8195 59.9115 23.3445C60.0503 22.2945 60.0693 19.8945 59.9494 18.857C59.2365 12.9008 56.1955 7.757 51.369 4.332C48.5614 2.34451 45.4068 1.12576 41.8863 0.663254C41.022 0.550755 38.4352 0.500751 37.6024 0.575752Z" fill="white"/>
<path d="M23.1861 62.8328C22.6624 63.014 22.1766 63.3515 21.8927 63.7265C21.7602 63.9015 20.0063 66.8703 17.9936 70.3265C15.5015 74.6015 14.3028 76.7265 14.2271 76.9765C14.0567 77.564 14.1135 78.3703 14.3722 78.8953C15.2429 80.689 17.552 81.0765 18.94 79.6578C19.1545 79.4328 20.164 77.764 22.8454 73.1703C24.8264 69.764 26.5425 66.8015 26.6498 66.5765C26.8328 66.1953 26.8454 66.1265 26.8454 65.4828C26.8454 64.9203 26.8201 64.7328 26.7003 64.4515C26.4164 63.7578 25.8044 63.1453 25.1104 62.8765C24.593 62.6765 23.6845 62.6578 23.1861 62.8328Z" fill="white"/>
<path d="M40.4731 62.8086C39.9936 62.9773 39.6151 63.2211 39.2996 63.5586C39.1104 63.7586 37.8296 65.9023 35.3123 70.2211C33.2744 73.7148 31.5583 76.6961 31.5078 76.8461C31.041 78.1273 31.6845 79.6148 32.9716 80.2461C33.3753 80.4398 33.5078 80.4711 34.0189 80.5023C34.5299 80.5273 34.6624 80.5086 35.0599 80.3711C35.5709 80.1961 36.0504 79.8773 36.3343 79.5211C36.5552 79.2461 43.6593 67.0961 43.8927 66.5961C44.5299 65.2398 43.8927 63.5961 42.4794 62.9336C42.1009 62.7586 41.9747 62.7336 41.4195 62.7211C40.9337 62.7023 40.7129 62.7273 40.4731 62.8086Z" fill="white"/>
<path d="M57.6655 62.8463C57.1986 63.0026 56.6876 63.3463 56.4163 63.6901C56.1071 64.0838 48.8831 76.5213 48.7506 76.8901C48.656 77.1651 48.6371 77.3588 48.656 77.8588C48.6749 78.3963 48.7065 78.5401 48.8705 78.8901C49.6024 80.4088 51.4257 80.9651 52.8831 80.1213C53.2491 79.9088 53.6718 79.4526 53.9683 78.9526C56.8516 74.0901 61.1292 66.6463 61.2554 66.2963C61.3816 65.9276 61.4005 65.7776 61.3689 65.3276C61.3374 64.7276 61.2238 64.3901 60.8831 63.8901C60.2144 62.8901 58.839 62.4463 57.6655 62.8463Z" fill="white"/>
</g>
<defs>
<clipPath id="clip0_495_19824">
<rect width="80" height="80" fill="white" transform="translate(0 0.515625)"/>
</clipPath>
</defs>
</svg>
