<svg width="70" height="71" viewBox="0 0 70 71" fill="none" xmlns="http://www.w3.org/2000/svg">
<g clip-path="url(#clip0_3_516)">
<path d="M32.9022 0.572266C27.2713 1.10274 22.4464 3.93555 19.3328 8.54023C17.5939 11.1105 16.5118 14.3152 16.3297 17.4707L16.3131 17.7168L15.761 17.7551C12.7082 17.9793 9.5008 19.1715 6.99449 21.009C2.44559 24.3504 -0.149046 29.6059 0.0165688 35.1621C0.0662534 36.7262 0.259471 37.9895 0.673509 39.4223C2.26893 44.9402 6.65774 49.359 12.2003 51.0106C13.4314 51.377 14.6017 51.5957 15.9211 51.7051C16.9314 51.7816 54.8241 51.7816 55.7957 51.6996C58.821 51.4481 61.6475 50.3543 64.0875 48.4949C64.347 48.2926 64.9708 47.7238 65.4787 47.2262C66.8312 45.8809 67.5875 44.8309 68.4322 43.1465C69.1388 41.7246 69.6081 40.2262 69.873 38.5254C69.9945 37.7324 70.011 35.3316 69.9006 34.5332C69.2934 30.2895 67.1569 26.6637 63.7894 24.1699C61.7192 22.6332 59.373 21.6816 56.6404 21.2605C55.8896 21.1457 53.3888 21.1293 52.7484 21.2332C52.5386 21.266 52.3565 21.2824 52.3454 21.2715C52.3344 21.2605 52.3675 20.9105 52.4227 20.4949C52.5442 19.5762 52.5607 17.4762 52.4558 16.5684C51.832 11.3566 49.1711 6.85586 44.948 3.85899C42.4913 2.11992 39.7311 1.05352 36.6506 0.648829C35.8943 0.550391 33.6309 0.506641 32.9022 0.572266Z" fill="white"/>
<path d="M20.2879 55.0465C19.8297 55.2051 19.4046 55.5004 19.1562 55.8285C19.0402 55.9816 17.5055 58.5793 15.7445 61.6035C13.5639 65.3441 12.515 67.2035 12.4488 67.4223C12.2997 67.9363 12.3494 68.6418 12.5757 69.1012C13.3376 70.6707 15.3581 71.0098 16.5726 69.7684C16.7603 69.5715 17.6435 68.1113 19.9898 64.0918C21.7232 61.1113 23.2248 58.5191 23.3186 58.3223C23.4787 57.9887 23.4898 57.9285 23.4898 57.3652C23.4898 56.8731 23.4677 56.709 23.3628 56.4629C23.1144 55.8559 22.5789 55.3199 21.9716 55.0848C21.5189 54.9098 20.724 54.8934 20.2879 55.0465Z" fill="white"/>
<path d="M35.4141 55.0246C34.9945 55.1723 34.6633 55.3856 34.3872 55.6809C34.2216 55.8559 33.101 57.7316 30.8983 61.5106C29.1152 64.5676 27.6136 67.1762 27.5694 67.3074C27.1609 68.4285 27.724 69.7301 28.8502 70.2824C29.2035 70.452 29.3194 70.4793 29.7666 70.5066C30.2137 70.5285 30.3297 70.5121 30.6775 70.3918C31.1246 70.2387 31.5442 69.9598 31.7926 69.6481C31.9858 69.4074 38.2019 58.7762 38.4062 58.3387C38.9637 57.152 38.4062 55.7137 37.1696 55.134C36.8383 54.9809 36.7279 54.959 36.2421 54.9481C35.8171 54.9316 35.6238 54.9535 35.4141 55.0246Z" fill="white"/>
<path d="M50.4574 55.0574C50.0489 55.1941 49.6017 55.4949 49.3644 55.7957C49.0938 56.1402 42.7729 67.023 42.6569 67.3457C42.5741 67.5863 42.5576 67.7559 42.5741 68.1934C42.5907 68.6637 42.6183 68.7895 42.7618 69.0957C43.4022 70.4246 44.9976 70.9113 46.2729 70.173C46.5931 69.9871 46.9629 69.5879 47.2224 69.1504C49.7453 64.8957 53.4882 58.3824 53.5986 58.0762C53.709 57.7535 53.7256 57.6223 53.6979 57.2285C53.6703 56.7035 53.571 56.4082 53.2729 55.9707C52.6877 55.0957 51.4842 54.7074 50.4574 55.0574Z" fill="white"/>
</g>
<defs>
<clipPath id="clip0_3_516">
<rect width="70" height="70" fill="white" transform="translate(0 0.517578)"/>
</clipPath>
</defs>
</svg>
