<svg width="70" height="71" viewBox="0 0 70 71" fill="none" xmlns="http://www.w3.org/2000/svg">
<path d="M33.9064 58.849C31.2814 58.849 29.2033 58.1684 27.672 56.8073C26.1408 55.4462 25.3752 53.3802 25.3752 50.6094H30.3335C30.3335 51.8733 30.613 52.8333 31.172 53.4896C31.7311 54.1458 32.6425 54.474 33.9064 54.474C35.2189 54.474 36.1547 54.1823 36.7137 53.599C37.2727 53.0156 37.5522 52.0191 37.5522 50.6094C37.5522 49.1996 37.2727 48.1667 36.7137 47.5104C36.1547 46.8542 35.2189 46.526 33.9064 46.526H5.8335V42.151H33.9064C36.5314 42.151 38.5245 42.8316 39.8856 44.1927C41.2467 45.5538 41.9272 47.6927 41.9272 50.6094C41.9272 53.3802 41.2467 55.4462 39.8856 56.8073C38.5245 58.1684 36.5314 58.849 33.9064 58.849ZM5.8335 29.099V24.724H45.7918C47.5904 24.724 48.9029 24.2986 49.7293 23.4479C50.5557 22.5972 50.9689 21.1753 50.9689 19.1823C50.9689 17.1892 50.5557 15.7674 49.7293 14.9167C48.9029 14.066 47.5904 13.6406 45.7918 13.6406C43.9446 13.6406 42.6078 14.1389 41.7814 15.1354C40.955 16.1319 40.5418 17.3837 40.5418 18.8906H36.1668C36.1668 16.0712 37.0175 13.7622 38.7189 11.9635C40.4203 10.1649 42.7779 9.26563 45.7918 9.26562C48.7571 9.26562 51.0904 10.1285 52.7918 11.8542C54.4932 13.5799 55.3439 16.0226 55.3439 19.1823C55.3439 22.342 54.4932 24.7847 52.7918 26.5104C51.0904 28.2361 48.7571 29.099 45.7918 29.099H5.8335ZM54.8335 53.1615V48.7865C56.5349 48.7865 57.7866 48.3125 58.5887 47.3646C59.3908 46.4167 59.7918 45.0434 59.7918 43.2448C59.7918 41.3976 59.3422 40.0608 58.4429 39.2344C57.5436 38.408 56.2432 37.9948 54.5418 37.9948H5.8335V33.6198H54.5418C57.5557 33.6198 59.9134 34.4705 61.6147 36.1719C63.3161 37.8733 64.1668 40.2309 64.1668 43.2448C64.1668 46.3559 63.3647 48.7865 61.7606 50.5365C60.1564 52.2865 57.8474 53.1615 54.8335 53.1615Z" fill="white"/>
</svg>
