<svg width="250" height="250" viewBox="0 0 250 250" fill="none" xmlns="http://www.w3.org/2000/svg">
<path d="M21 125.167C21 152.793 31.9747 179.289 51.5097 198.824C71.0448 218.359 97.5399 229.333 125.167 229.333C152.793 229.333 179.289 218.359 198.824 198.824C218.359 179.289 229.333 152.793 229.333 125.167C229.333 97.5399 218.359 71.0448 198.824 51.5097C179.289 31.9747 152.793 21 125.167 21C97.5399 21 71.0448 31.9747 51.5097 51.5097C31.9747 71.0448 21 97.5399 21 125.167Z" fill="#FF6242"/>
<path d="M75.6875 130.375C75.6875 131.756 76.2362 133.081 77.213 134.058C78.1897 135.034 79.5145 135.583 80.8958 135.583C82.2772 135.583 83.6019 135.034 84.5787 134.058C85.5554 133.081 86.1042 131.756 86.1042 130.375C86.1042 128.994 85.5554 127.669 84.5787 126.692C83.6019 125.715 82.2772 125.167 80.8958 125.167C79.5145 125.167 78.1897 125.715 77.213 126.692C76.2362 127.669 75.6875 128.994 75.6875 130.375Z" fill="#45413C" stroke="#45413C" stroke-width="5.20833" stroke-linecap="round" stroke-linejoin="round"/>
<path d="M100.844 122.563C100.844 122.563 85.2188 99.1251 67.875 106.938" stroke="#45413C" stroke-width="5.20833" stroke-linecap="round" stroke-linejoin="round"/>
<path d="M149.489 122.563C149.489 122.563 165.114 99.1251 182.458 106.938" stroke="#45413C" stroke-width="5.20833" stroke-linecap="round" stroke-linejoin="round"/>
<path d="M164.229 130.375C164.229 131.756 164.777 133.081 165.754 134.058C166.731 135.034 168.056 135.583 169.437 135.583C170.818 135.583 172.143 135.034 173.12 134.058C174.096 133.081 174.645 131.756 174.645 130.375C174.645 128.994 174.096 127.669 173.12 126.692C172.143 125.715 170.818 125.167 169.437 125.167C168.056 125.167 166.731 125.715 165.754 126.692C164.777 127.669 164.229 128.994 164.229 130.375Z" fill="#45413C" stroke="#45413C" stroke-width="5.20833" stroke-linecap="round" stroke-linejoin="round"/>
<path d="M99.125 177.25C106.833 172.1 115.896 169.351 125.167 169.351C134.437 169.351 143.5 172.1 151.208 177.25" stroke="#45413C" stroke-width="5.20833" stroke-linecap="round"/>
<path d="M161.208 56.7812C160.564 60.1744 158.602 63.1745 155.753 65.1263C152.903 67.0781 149.397 67.8228 146 67.1979" stroke="#45413C" stroke-width="5.20833" stroke-linecap="round" stroke-linejoin="round"/>
<path d="M179.333 80.8957C177.576 79.8276 176.047 78.4232 174.834 76.7631C173.621 75.103 172.748 73.2199 172.264 71.2216C171.78 69.2232 171.695 67.1491 172.015 65.118C172.334 63.0868 173.051 61.1387 174.125 59.3853" stroke="#45413C" stroke-width="5.20833" stroke-linecap="round" stroke-linejoin="round"/>
<path d="M148.812 79.698C152.466 77.7438 156.747 77.3209 160.712 78.5223C164.678 79.7237 168.003 82.4509 169.958 86.1043" stroke="#45413C" stroke-width="5.20833" stroke-linecap="round" stroke-linejoin="round"/>
</svg>
