<svg width="65" height="66" viewBox="0 0 65 66" fill="none" xmlns="http://www.w3.org/2000/svg">
<path d="M5.41669 29.6068C5.41669 36.7897 8.2701 43.6785 13.3492 48.7576C18.4283 53.8367 25.3171 56.6901 32.5 56.6901C39.683 56.6901 46.5717 53.8367 51.6508 48.7576C56.7299 43.6785 59.5834 36.7897 59.5834 29.6068C59.5834 22.4238 56.7299 15.5351 51.6508 10.456C46.5717 5.37685 39.683 2.52344 32.5 2.52344C25.3171 2.52344 18.4283 5.37685 13.3492 10.456C8.2701 15.5351 5.41669 22.4238 5.41669 29.6068Z" fill="#E07F1C"/>
<path d="M13.526 48.5808C8.49376 43.5486 5.66669 36.7234 5.66669 29.6068C5.66669 22.4901 8.49376 15.665 13.526 10.6327C18.5582 5.60051 25.3834 2.77344 32.5 2.77344C39.6167 2.77344 46.4418 5.60051 51.474 10.6327C56.5063 15.665 59.3333 22.4901 59.3333 29.6068C59.3333 36.7234 56.5063 43.5486 51.474 48.5808C46.4418 53.613 39.6167 56.4401 32.5 56.4401C25.3834 56.4401 18.5582 53.613 13.526 48.5808Z" stroke="black" stroke-width="0.5" stroke-linecap="round" stroke-linejoin="round"/>
<path d="M25.7292 43.1484C27.7334 41.8093 30.0896 41.0946 32.5 41.0946C34.9104 41.0946 37.2667 41.8093 39.2709 43.1484" stroke="#45413C" stroke-width="2" stroke-linecap="round"/>
<path d="M20.3125 29.6068C20.3125 29.8746 20.2331 30.1364 20.0843 30.3591C19.9355 30.5818 19.724 30.7554 19.4766 30.8578C19.2291 30.9603 18.9569 30.9872 18.6942 30.9349C18.4315 30.8827 18.1902 30.7537 18.0008 30.5643C17.8114 30.3749 17.6825 30.1336 17.6302 29.8709C17.578 29.6083 17.6048 29.336 17.7073 29.0885C17.8098 28.8411 17.9833 28.6296 18.206 28.4808C18.4287 28.332 18.6905 28.2526 18.9584 28.2526C19.3175 28.2526 19.6619 28.3953 19.9159 28.6492C20.1699 28.9032 20.3125 29.2476 20.3125 29.6068Z" fill="#45413C" stroke="#45413C" stroke-width="2" stroke-linecap="round" stroke-linejoin="round"/>
<path d="M44.6875 29.6068C44.6875 29.8746 44.7669 30.1364 44.9157 30.3591C45.0645 30.5818 45.276 30.7554 45.5235 30.8578C45.7709 30.9603 46.0432 30.9872 46.3059 30.9349C46.5685 30.8827 46.8098 30.7537 46.9992 30.5643C47.1886 30.3749 47.3176 30.1336 47.3698 29.8709C47.4221 29.6083 47.3952 29.336 47.2928 29.0885C47.1903 28.8411 47.0167 28.6296 46.794 28.4808C46.5713 28.332 46.3095 28.2526 46.0417 28.2526C45.6825 28.2526 45.3381 28.3953 45.0841 28.6492C44.8302 28.9032 44.6875 29.2476 44.6875 29.6068Z" fill="#45413C" stroke="#45413C" stroke-width="2" stroke-linecap="round" stroke-linejoin="round"/>
</svg>
