<svg width="250" height="250" viewBox="0 0 250 250" fill="none" xmlns="http://www.w3.org/2000/svg">
<path d="M21 125.167C21 152.793 31.9747 179.289 51.5097 198.824C71.0448 218.359 97.5399 229.333 125.167 229.333C152.793 229.333 179.289 218.359 198.824 198.824C218.359 179.289 229.333 152.793 229.333 125.167C229.333 97.5399 218.359 71.0448 198.824 51.5097C179.289 31.9747 152.793 21 125.167 21C97.5399 21 71.0448 31.9747 51.5097 51.5097C31.9747 71.0448 21 97.5399 21 125.167Z" fill="#E07F1C"/>
<path d="M99.125 177.25C106.833 172.1 115.896 169.351 125.167 169.351C134.437 169.351 143.5 172.1 151.208 177.25" stroke="#45413C" stroke-width="5.20833" stroke-linecap="round"/>
<path d="M78.2917 125.167C78.2917 126.197 77.9862 127.204 77.4139 128.06C76.8416 128.917 76.0282 129.584 75.0765 129.979C74.1248 130.373 73.0776 130.476 72.0672 130.275C71.0569 130.074 70.1289 129.578 69.4005 128.85C68.6721 128.121 68.176 127.193 67.9751 126.183C67.7741 125.173 67.8773 124.125 68.2715 123.174C68.6657 122.222 69.3332 121.409 70.1897 120.836C71.0462 120.264 72.0532 119.958 73.0833 119.958C74.4647 119.958 75.7894 120.507 76.7662 121.484C77.7429 122.461 78.2917 123.785 78.2917 125.167Z" fill="#45413C" stroke="#45413C" stroke-width="5.20833" stroke-linecap="round" stroke-linejoin="round"/>
<path d="M172.041 125.167C172.041 126.197 172.346 127.204 172.919 128.06C173.491 128.917 174.305 129.584 175.256 129.979C176.208 130.373 177.255 130.476 178.265 130.275C179.276 130.074 180.204 129.578 180.932 128.85C181.661 128.121 182.157 127.193 182.358 126.183C182.559 125.173 182.455 124.125 182.061 123.174C181.667 122.222 180.999 121.409 180.143 120.836C179.286 120.264 178.279 119.958 177.249 119.958C175.868 119.958 174.543 120.507 173.566 121.484C172.59 122.461 172.041 123.785 172.041 125.167Z" fill="#45413C" stroke="#45413C" stroke-width="5.20833" stroke-linecap="round" stroke-linejoin="round"/>
</svg>
