<svg width="65" height="66" viewBox="0 0 65 66" fill="none" xmlns="http://www.w3.org/2000/svg">
<path d="M5.41663 29.6068C5.41663 36.7897 8.27004 43.6785 13.3491 48.7576C18.4283 53.8367 25.317 56.6901 32.5 56.6901C39.6829 56.6901 46.5717 53.8367 51.6508 48.7576C56.7299 43.6785 59.5833 36.7897 59.5833 29.6068C59.5833 22.4238 56.7299 15.5351 51.6508 10.456C46.5717 5.37685 39.6829 2.52344 32.5 2.52344C25.317 2.52344 18.4283 5.37685 13.3491 10.456C8.27004 15.5351 5.41663 22.4238 5.41663 29.6068Z" fill="#FFE500"/>
<path d="M13.526 48.5808C8.49376 43.5486 5.66669 36.7234 5.66669 29.6068C5.66669 22.4901 8.49376 15.665 13.526 10.6327C18.5582 5.60051 25.3834 2.77344 32.5 2.77344C39.6167 2.77344 46.4418 5.60051 51.474 10.6327C56.5063 15.665 59.3333 22.4901 59.3333 29.6068C59.3333 36.7234 56.5063 43.5486 51.474 48.5808C46.4418 53.613 39.6167 56.4401 32.5 56.4401C25.3834 56.4401 18.5582 53.613 13.526 48.5808Z" stroke="black" stroke-width="0.5" stroke-linecap="round" stroke-linejoin="round"/>
<path d="M19.6354 28.2526C19.6354 28.5204 19.556 28.7822 19.4072 29.0049C19.2584 29.2276 19.0469 29.4012 18.7994 29.5037C18.552 29.6062 18.2797 29.633 18.017 29.5808C17.7544 29.5285 17.5131 29.3995 17.3237 29.2101C17.1343 29.0208 17.0053 28.7795 16.9531 28.5168C16.9008 28.2541 16.9276 27.9818 17.0301 27.7344C17.1326 27.4869 17.3062 27.2755 17.5289 27.1267C17.7516 26.9779 18.0134 26.8984 18.2812 26.8984C18.6404 26.8984 18.9848 27.0411 19.2388 27.2951C19.4927 27.549 19.6354 27.8935 19.6354 28.2526Z" fill="#45413C" stroke="#45413C" stroke-width="2" stroke-linecap="round" stroke-linejoin="round"/>
<path d="M45.3646 28.2526C45.3646 28.5204 45.444 28.7822 45.5928 29.0049C45.7416 29.2276 45.9531 29.4012 46.2005 29.5037C46.448 29.6062 46.7202 29.633 46.9829 29.5808C47.2456 29.5285 47.4869 29.3995 47.6763 29.2101C47.8657 29.0208 47.9946 28.7795 48.0469 28.5168C48.0991 28.2541 48.0723 27.9818 47.9698 27.7344C47.8673 27.4869 47.6938 27.2755 47.4711 27.1267C47.2484 26.9779 46.9866 26.8984 46.7187 26.8984C46.3596 26.8984 46.0151 27.0411 45.7612 27.2951C45.5072 27.549 45.3646 27.8935 45.3646 28.2526Z" fill="#45413C" stroke="#45413C" stroke-width="2" stroke-linecap="round" stroke-linejoin="round"/>
<path d="M25.7292 42.4713H39.2709" stroke="#45413C" stroke-width="2" stroke-linecap="round" stroke-linejoin="round"/>
</svg>
