<svg width="250" height="250" viewBox="0 0 250 250" fill="none" xmlns="http://www.w3.org/2000/svg">
<path d="M21 125.167C21 152.793 31.9747 179.289 51.5097 198.824C71.0448 218.359 97.5399 229.333 125.167 229.333C152.793 229.333 179.289 218.359 198.824 198.824C218.359 179.289 229.333 152.793 229.333 125.167C229.333 97.5399 218.359 71.0448 198.824 51.5097C179.289 31.9747 152.793 21 125.167 21C97.5399 21 71.0448 31.9747 51.5097 51.5097C31.9747 71.0448 21 97.5399 21 125.167Z" fill="#FFE500"/>
<path d="M21 125.167C21 152.793 31.9747 179.289 51.5097 198.824C71.0448 218.359 97.5399 229.333 125.167 229.333C152.793 229.333 179.289 218.359 198.824 198.824C218.359 179.289 229.333 152.793 229.333 125.167C229.333 97.5399 218.359 71.0448 198.824 51.5097C179.289 31.9747 152.793 21 125.167 21C97.5399 21 71.0448 31.9747 51.5097 51.5097C31.9747 71.0448 21 97.5399 21 125.167Z" fill="#FFE500"/>
<path d="M75.6882 119.958C75.6882 120.988 75.3827 121.995 74.8104 122.852C74.2381 123.708 73.4247 124.376 72.473 124.77C71.5213 125.164 70.474 125.268 69.4637 125.067C68.4534 124.866 67.5254 124.37 66.797 123.641C66.0686 122.913 65.5725 121.985 65.3716 120.974C65.1706 119.964 65.2737 118.917 65.6679 117.965C66.0622 117.013 66.7297 116.2 67.5862 115.628C68.4427 115.055 69.4497 114.75 70.4798 114.75C71.8612 114.75 73.1859 115.299 74.1627 116.275C75.1394 117.252 75.6882 118.577 75.6882 119.958Z" fill="#45413C" stroke="#45413C" stroke-width="5.20833" stroke-linecap="round" stroke-linejoin="round"/>
<path d="M174.646 119.958C174.646 120.988 174.952 121.995 175.524 122.852C176.097 123.708 176.91 124.376 177.862 124.77C178.813 125.164 179.861 125.268 180.871 125.067C181.881 124.866 182.809 124.37 183.538 123.641C184.266 122.913 184.762 121.985 184.963 120.974C185.164 119.964 185.061 118.917 184.667 117.965C184.272 117.013 183.605 116.2 182.748 115.628C181.892 115.055 180.885 114.75 179.855 114.75C178.473 114.75 177.149 115.299 176.172 116.275C175.195 117.252 174.646 118.577 174.646 119.958Z" fill="#45413C" stroke="#45413C" stroke-width="5.20833" stroke-linecap="round" stroke-linejoin="round"/>
<path d="M99.125 174.646H151.208" stroke="#45413C" stroke-width="5.20833" stroke-linecap="round" stroke-linejoin="round"/>
</svg>
