<svg width="65" height="66" viewBox="0 0 65 66" fill="none" xmlns="http://www.w3.org/2000/svg">
<path d="M13.526 48.5808C8.49376 43.5486 5.66669 36.7234 5.66669 29.6068C5.66669 22.4901 8.49376 15.665 13.526 10.6327C18.5582 5.60051 25.3834 2.77344 32.5 2.77344C39.6167 2.77344 46.4418 5.60051 51.4741 10.6327C56.5063 15.665 59.3334 22.4901 59.3334 29.6068C59.3334 36.7234 56.5063 43.5486 51.4741 48.5808C46.4418 53.613 39.6167 56.4401 32.5 56.4401C25.3834 56.4401 18.5582 53.613 13.526 48.5808Z" fill="#3A9558" fill-opacity="0.3" stroke="black" stroke-width="0.5"/>
<path d="M19.6354 28.2526C19.6354 28.5204 19.556 28.7822 19.4072 29.0049C19.2584 29.2276 19.0469 29.4012 18.7994 29.5037C18.552 29.6062 18.2797 29.633 18.017 29.5808C17.7544 29.5285 17.5131 29.3995 17.3237 29.2101C17.1343 29.0208 17.0053 28.7795 16.9531 28.5168C16.9008 28.2541 16.9276 27.9818 17.0301 27.7344C17.1326 27.4869 17.3062 27.2755 17.5289 27.1267C17.7516 26.9779 18.0134 26.8984 18.2812 26.8984C18.6404 26.8984 18.9848 27.0411 19.2388 27.2951C19.4927 27.549 19.6354 27.8935 19.6354 28.2526Z" fill="#45413C" stroke="#45413C" stroke-width="2" stroke-linecap="round" stroke-linejoin="round"/>
<path d="M45.3646 28.2526C45.3646 28.5204 45.444 28.7822 45.5928 29.0049C45.7416 29.2276 45.9531 29.4012 46.2005 29.5037C46.448 29.6062 46.7202 29.633 46.9829 29.5808C47.2456 29.5285 47.4869 29.3995 47.6763 29.2101C47.8657 29.0208 47.9946 28.7795 48.0469 28.5168C48.0991 28.2541 48.0723 27.9818 47.9698 27.7344C47.8673 27.4869 47.6938 27.2755 47.4711 27.1267C47.2484 26.9779 46.9866 26.8984 46.7187 26.8984C46.3596 26.8984 46.0151 27.0411 45.7612 27.2951C45.5072 27.549 45.3646 27.8935 45.3646 28.2526Z" fill="#45413C" stroke="#45413C" stroke-width="2" stroke-linecap="round" stroke-linejoin="round"/>
<path d="M32.2265 49.8898C35.7734 49.9434 39.2285 49.1053 41.9536 47.5303C44.6786 45.9552 46.4895 43.7497 47.0517 41.321C47.0749 41.1767 47.0492 41.0306 46.9766 40.8943C46.9041 40.7581 46.7868 40.6354 46.6339 40.5361C46.4686 40.4344 46.2731 40.359 46.0612 40.3154C45.8492 40.2718 45.6261 40.261 45.4075 40.2838C36.6851 41.2556 27.7949 41.2556 19.0725 40.2838C18.8539 40.261 18.6307 40.2718 18.4188 40.3154C18.2069 40.359 18.0113 40.4344 17.846 40.5361C17.6932 40.6354 17.5759 40.7581 17.5033 40.8943C17.4308 41.0306 17.4051 41.1767 17.4282 41.321C17.9898 43.7464 19.7968 45.9494 22.5162 47.5241C25.2356 49.0987 28.6842 49.9388 32.2265 49.8898Z" fill="#45413C" stroke="#45413C" stroke-width="2" stroke-linecap="round" stroke-linejoin="round"/>
</svg>
