<svg width="250" height="250" viewBox="0 0 250 250" fill="none" xmlns="http://www.w3.org/2000/svg">
<path d="M21 125.167C21 152.793 31.9747 179.289 51.5097 198.824C71.0448 218.359 97.5399 229.333 125.167 229.333C152.793 229.333 179.289 218.359 198.824 198.824C218.359 179.289 229.333 152.793 229.333 125.167C229.333 97.5399 218.359 71.0448 198.824 51.5097C179.289 31.9747 152.793 21 125.167 21C97.5399 21 71.0448 31.9747 51.5097 51.5097C31.9747 71.0448 21 97.5399 21 125.167Z" fill="#3A9558"/>
<path d="M21 125.167C21 152.793 31.9747 179.289 51.5097 198.824C71.0448 218.359 97.5399 229.333 125.167 229.333C152.793 229.333 179.289 218.359 198.824 198.824C218.359 179.289 229.333 152.793 229.333 125.167C229.333 97.5399 218.359 71.0448 198.824 51.5097C179.289 31.9747 152.793 21 125.167 21C97.5399 21 71.0448 31.9747 51.5097 51.5097C31.9747 71.0448 21 97.5399 21 125.167Z" fill="#3A9558"/>
<path d="M21 125.167C21 152.793 31.9747 179.289 51.5097 198.824C71.0448 218.359 97.5399 229.333 125.167 229.333C152.793 229.333 179.289 218.359 198.824 198.824C218.359 179.289 229.333 152.793 229.333 125.167C229.333 97.5399 218.359 71.0448 198.824 51.5097C179.289 31.9747 152.793 21 125.167 21C97.5399 21 71.0448 31.9747 51.5097 51.5097C31.9747 71.0448 21 97.5399 21 125.167Z" fill="#3A9558"/>
<path d="M75.6872 119.958C75.6872 120.988 75.3817 121.995 74.8094 122.852C74.2371 123.708 73.4237 124.376 72.472 124.77C71.5203 125.164 70.4731 125.268 69.4627 125.067C68.4524 124.866 67.5244 124.37 66.796 123.641C66.0676 122.913 65.5716 121.985 65.3706 120.974C65.1696 119.964 65.2728 118.917 65.667 117.965C66.0612 117.013 66.7287 116.2 67.5852 115.628C68.4418 115.055 69.4487 114.75 70.4788 114.75C71.8602 114.75 73.1849 115.299 74.1617 116.275C75.1384 117.252 75.6872 118.577 75.6872 119.958Z" fill="#45413C" stroke="#45413C" stroke-width="5.20833" stroke-linecap="round" stroke-linejoin="round"/>
<path d="M174.646 119.958C174.646 120.988 174.951 121.995 175.523 122.852C176.096 123.708 176.909 124.376 177.861 124.77C178.812 125.164 179.86 125.268 180.87 125.067C181.88 124.866 182.808 124.37 183.537 123.641C184.265 122.913 184.761 121.985 184.962 120.974C185.163 119.964 185.06 118.917 184.666 117.965C184.271 117.013 183.604 116.2 182.747 115.628C181.891 115.055 180.884 114.75 179.854 114.75C178.473 114.75 177.148 115.299 176.171 116.275C175.194 117.252 174.646 118.577 174.646 119.958Z" fill="#45413C" stroke="#45413C" stroke-width="5.20833" stroke-linecap="round" stroke-linejoin="round"/>
<path d="M124.114 203.178C137.756 203.385 151.045 200.161 161.526 194.103C172.007 188.045 178.972 179.563 181.134 170.221C181.223 169.666 181.124 169.104 180.845 168.58C180.566 168.056 180.115 167.585 179.527 167.203C178.892 166.811 178.14 166.521 177.324 166.354C176.509 166.186 175.651 166.145 174.81 166.232C141.263 169.97 107.069 169.97 73.5218 166.232C72.681 166.145 71.8227 166.186 71.0076 166.354C70.1925 166.521 69.4405 166.811 68.8046 167.203C68.2168 167.585 67.7656 168.056 67.4866 168.58C67.2077 169.104 67.1088 169.666 67.1977 170.221C69.3578 179.55 76.3077 188.023 86.7669 194.079C97.2261 200.136 110.49 203.367 124.114 203.178Z" fill="#45413C" stroke="#45413C" stroke-width="5.20833" stroke-linecap="round" stroke-linejoin="round"/>
</svg>
